<?xml version="1.0" encoding="utf-8"?>
<!-- Generator: Adobe Illustrator 18.0.0, SVG Export Plug-In . SVG Version: 6.00 Build 0)  -->
<!DOCTYPE svg PUBLIC "-//W3C//DTD SVG 1.1//EN" "http://www.w3.org/Graphics/SVG/1.1/DTD/svg11.dtd">
<svg version="1.1" id="Layer_1" xmlns="http://www.w3.org/2000/svg" xmlns:xlink="http://www.w3.org/1999/xlink" x="0px" y="0px"
	 viewBox="0 0 16 16" enable-background="new 0 0 16 16" xml:space="preserve">
    <def>
        <style>
            #icon-edit-item {
		      fill: #FF4A15;
	       }
        </style>
    </def>
<path id="icon-edit-item" fill="#B2004D" d="M13,8v5c0,0.5-0.5,1-1,1H3c-0.5,0-1-0.5-1-1V4c0-0.5,0.5-1,1-1h5l2-2H3C1.3,1,0,2.3,0,4
	v9c0,1.6,1.3,3,3,3h9c1.7,0,3-1.4,3-3V6L13,8z"/>
<path id="icon-edit-pencil" fill="#B2004D" d="M6,8l2,2l-4,2L6,8z M12.2,4.1L8.3,8.2L9,9l4-4L12.2,4.1z M11.4,3.4L11,3L7,7l0.4,0.4
	L11.4,3.4z M12,2l2,2l2-2l-2-2L12,2z"/>
</svg>
